# xmcd
#
# Track frame offsets:
#	150
#	18275
#	35503
#	53313
#	71415
#	87383
#	108157
#	130792
#	154638
#	174683
#	195282
#	217529
#
# Disc length: 3125 seconds
#
# Revision: 1
# Processed by: cddbd v1.5.2PL0 Copyright (c) Steve Scherf et al.
# Submitted via: audiograbber 1.83.01
#
DISCID=870c330c
DTITLE=Ray Charles - Genius Loves Company
DYEAR=1900
DGENRE=Soul
TTITLE0=Here We Go Again (w. Norah Jones)
TTITLE1=Sweet Potato Pie (w. James Taylor)
TTITLE2=You Don't Know Me (w. Diana Krall)
TTITLE3=Sorry Seems to be the Hardest (w. Elton John)
TTITLE4=Fever (w. Natalie Cole)
TTITLE5=Do I Ever Cross Your Mind (w. Bonnie Raitt)
TTITLE6=It Was a Good Year (w. Willie Nelson)
TTITLE7=Hey Girl (w. Michael McDonald)
TTITLE8=Sinner's Prayer (w. B.B. King)
TTITLE9=Heaven Helps Us All (w. Gladys Knight)
TTITLE10=Over The Rainbow (w. Johnny Mathis)
TTITLE11=Crazy Love (w. van Morrison)
EXTD=
EXTT0=
EXTT1=
EXTT2=
EXTT3=
EXTT4=
EXTT5=
EXTT6=
EXTT7=
EXTT8=
EXTT9=
EXTT10=
EXTT11=
PLAYORDER=
